<?xml version="1.0" encoding="UTF-8" standalone="no"?>
<svg width="32px" height="32px" viewBox="0 0 32 32" version="1.1" xmlns="http://www.w3.org/2000/svg" xmlns:xlink="http://www.w3.org/1999/xlink" xmlns:sketch="http://www.bohemiancoding.com/sketch/ns">
    <!-- Generator: Sketch 3.3.2 (12043) - http://www.bohemiancoding.com/sketch -->
    <title>favicon</title>
    <desc>Created with Sketch.</desc>
    <defs></defs>
    <g id="Page-1" stroke="none" stroke-width="1" fill="none" fill-rule="evenodd" sketch:type="MSPage">
        <path d="M21.7646606,14.536 C22.8442719,15.37248 24.2068158,15.92928 24.5826564,16.02272 C24.9115576,16.11328 26.1795748,16.44128 26.3210411,16.44128 C26.5081521,16.44128 26.6968817,16.62752 26.8373768,16.62752 C26.9788432,16.62752 27.3087155,16.44128 27.4019471,16.02272 C27.4948553,15.65248 27.7777879,14.44544 27.2145124,14.352 C26.6026788,14.25888 26.557034,14.536 26.557034,14.536 C26.557034,14.536 25.8050289,14.304 25.6635627,14.16576 C25.5217726,14.02688 24.3010187,13.4224 23.9721177,13.0496 C23.5959532,12.67904 22.7970086,11.84288 22.4221391,11.19232 C21.999035,10.40384 21.5762548,9.14880003 21.3415566,8.68544003 C21.1055636,8.17376003 20.4953486,7.15328 20.0719208,6.78048 C19.6973749,6.45536 18.756964,5.62144 18.7097007,5.57376 C18.6624374,5.52832 18.6624374,5.06208 18.756964,5.01696 C18.8511669,4.96928 19.7902831,4.50304 19.9777179,4.04192 C20.1664475,3.62336 20.4480852,3.39168 20.4480852,2.60064 C20.448409,1.7664 19.6491404,-3.75962372e-10 17.7705845,-3.75962372e-10 C15.8920285,-3.75962372e-10 15.2332553,1.39328 15.2332553,2.41632 C15.2332553,3.85504 16.1723714,4.18016 15.937997,4.55296 C15.7495911,4.73696 15.2805186,4.73696 14.6699798,4.78496 C14.1054095,4.8304 12.7441605,5.3872 12.0381239,6.03712 C11.3806454,6.68736 10.0650412,8.12864003 9.69049539,8.91712003 C9.26706765,9.70848003 8.51538628,11.1472 8.23245367,12.21568 C7.95211083,13.23584 7.80902592,13.8864 7.80902592,14.2592 C7.80902592,14.67744 7.71611784,15.09568 7.71611784,15.09568 C7.71611784,15.09568 7.19978201,15.46592 7.19978201,15.79104 C7.19978201,16.1136 7.76305746,16.67296 8.09195853,16.81408 C8.42085959,16.99776 9.07866171,17.23232 9.26706765,17.23232 C9.45450241,17.23232 10.1592442,16.95264 10.1592442,16.48928 C10.1592442,16.02304 9.87631155,15.37312 9.87631155,14.95456 C9.87631155,14.58432 10.2997393,12.95936 10.5354086,12.58624 C10.7225196,12.26112 11.521788,11.00896 11.7092228,10.8224 C11.8976287,10.63584 12.2265298,10.40416 12.2265298,10.40416 C12.2265298,11.79744 12.0381239,15.09568 11.757781,16.02304 C11.4748484,16.95264 10.1123045,19.60128 9.5477342,20.52832 C8.89025579,21.59648 7.43480384,23.82656 6.63553541,24.70816 C5.8365907,25.59008 4.71003981,26.56544 4.56824978,26.70624 C4.38113874,26.79968 4.42678348,27.03136 4.56824978,27.26304 C4.66277647,27.49504 6.07096507,30.28192 6.16549176,30.28192 C6.21372627,30.28192 8.37391997,30.70016 8.46844665,30.70016 C8.60991295,30.70016 8.70282103,30.32736 8.46844665,30.23392 C8.23245367,30.09536 7.99807928,30.05024 7.99807928,30.05024 C7.80934963,29.21376 7.57497527,28.37696 7.34060088,27.49536 C7.34060088,27.49536 9.12624878,25.87008 9.50208946,25.45184 C9.83099053,25.03328 11.7581047,23.17664 12.1326505,22.61952 C12.4615516,22.10784 13.6823054,20.43488 13.8253904,20.01664 C14.0128252,19.60096 14.8117699,18.29824 14.8117699,18.29824 C14.8117699,18.29824 15.6097434,19.0416 15.9383207,19.45984 C16.2212533,19.87808 17.5368576,22.20128 17.8172004,22.75808 C18.1473964,23.26976 19.2752421,25.87008 19.4154136,26.472 C19.6034957,27.03104 21.4820518,32 21.4820518,32 C21.4820518,32 25.8509974,30.09504 26.039727,30.00192 C26.228133,29.86304 26.4628311,29.39936 26.039727,29.39936 C25.6162992,29.39936 22.9387986,29.07424 22.9387986,29.07424 C22.9387986,29.07424 22.7973324,27.58752 22.7028056,27.1696 C22.6568372,26.75104 21.9993587,23.82592 21.7649844,23.26912 C21.5289915,22.75744 20.4011455,20.15712 20.1667713,19.87744 C19.8851334,19.55232 19.0858651,17.32288 18.8971355,16.81376 C18.7100244,16.2544 18.4283867,14.8608 18.4283867,14.25888 C18.4283867,13.65408 18.7100244,12.12224 19.0858651,11.42656 C19.5549375,12.49248 20.6840781,13.65408 21.7646606,14.536 Z" id="Shape-3-Copy-5" fill="#444444" sketch:type="MSShapeGroup"></path>
    </g>
</svg>