<?xml version="1.0" encoding="UTF-8" standalone="no"?>
<svg width="22px" height="22px" viewBox="0 0 22 22" version="1.1" xmlns="http://www.w3.org/2000/svg" xmlns:xlink="http://www.w3.org/1999/xlink" xmlns:sketch="http://www.bohemiancoding.com/sketch/ns">
    <!-- Generator: Sketch 3.3.2 (12043) - http://www.bohemiancoding.com/sketch -->
    <title>icon-twitter</title>
    <desc>Created with Sketch.</desc>
    <defs></defs>
    <g id="Page-1" stroke="none" stroke-width="1" fill="none" fill-rule="evenodd" sketch:type="MSPage">
        <path d="M21.1474473,3.29933333 C20.3263005,3.77066667 19.4167544,4.112 18.4485057,4.29733333 C17.674321,3.49866667 16.5679483,3 15.3462422,3 C12.9988259,3 11.0961688,4.83733333 11.0961688,7.104 C11.0961688,7.426 11.1334622,7.73866667 11.2052867,8.03933333 C7.67207652,7.86733333 4.54011637,6.23466667 2.44408571,3.75133333 C2.07736667,4.35666667 1.86741829,5.06266667 1.86741829,5.81533333 C1.86741829,7.23866667 2.61812186,8.49333333 3.75902554,9.22933333 C3.0621903,9.20866667 2.40610162,9.02333333 1.83288731,8.716 L1.83288731,8.768 C1.83288731,10.7553333 3.29838222,12.414 5.24316718,12.792 C4.88680744,12.8853333 4.51041972,12.936 4.12367272,12.936 C3.84949671,12.936 3.58291752,12.91 3.32393515,12.862 C3.86469034,14.4926667 5.43446883,15.6786667 7.29499819,15.7126667 C5.83917195,16.8126667 4.00626737,17.4686667 2.01452028,17.4686667 C1.67059169,17.4686667 1.3335693,17.4493333 1,17.4113333 C2.88262919,18.576 5.11609316,19.254 7.51737772,19.254 C15.3365735,19.254 19.6115092,13.0026667 19.6115092,7.57933333 C19.6115092,7.40266667 19.6087467,7.224 19.599078,7.04866667 C20.4298935,6.47 21.1502098,5.74733333 21.7192804,4.92466667 C20.9589081,5.25133333 20.138452,5.47133333 19.2793211,5.57066667 C20.1564081,5.06266667 20.8304529,4.25933333 21.1474473,3.29933333" id="Fill-3" fill="#444444" sketch:type="MSShapeGroup"></path>
    </g>
</svg>