<?xml version="1.0" encoding="UTF-8" standalone="no"?>
<svg width="22px" height="22px" viewBox="0 0 22 22" version="1.1" xmlns="http://www.w3.org/2000/svg" xmlns:xlink="http://www.w3.org/1999/xlink" xmlns:sketch="http://www.bohemiancoding.com/sketch/ns">
    <!-- Generator: Sketch 3.3.2 (12043) - http://www.bohemiancoding.com/sketch -->
    <title>icon-google</title>
    <desc>Created with Sketch.</desc>
    <defs></defs>
    <g id="Page-1" stroke="none" stroke-width="1" fill="none" fill-rule="evenodd" sketch:type="MSPage">
        <path d="M16.9890191,14.5586667 L17.8792279,14.5586667 C18.1174917,14.5586667 18.3108652,14.3713333 18.3108652,14.1406667 L18.3108652,11.1253333 L21.4345379,11.1253333 C21.6721111,11.1253333 21.8661752,10.9386667 21.8661752,10.7086667 L21.8661752,9.85066667 C21.8661752,9.62 21.6721111,9.43266667 21.4345379,9.43266667 L18.3108652,9.43266667 L18.3108652,6.41666667 C18.3108652,6.186 18.1174917,6 17.8792279,6 L16.9890191,6 C16.7500647,6 16.5560006,6.186 16.5560006,6.41666667 L16.5560006,9.43266667 L13.4316373,9.43266667 C13.1947547,9.43266667 13,9.62 13,9.85066667 L13,10.7086667 C13,10.9386667 13.1947547,11.1253333 13.4316373,11.1253333 L16.5560006,11.1253333 L16.5560006,14.1406667 C16.5560006,14.3713333 16.7500647,14.5586667 16.9890191,14.5586667" id="Fill-8" fill="#444444" sketch:type="MSShapeGroup"></path>
        <path d="M3.53528203,19.6746667 C4.32604154,19.8673333 5.17550372,19.966 6.05811564,19.966 C6.85094701,19.966 7.60648492,19.8673333 8.30539201,19.672 C10.4836064,19.0613333 11.8917799,17.5133333 11.8917799,15.7266667 C11.8917799,14.012 11.3213281,12.9846667 9.78884304,11.938 C9.13206374,11.49 8.53467774,10.8306667 8.52362783,10.6293333 C8.52362783,10.2606667 8.55746819,10.0846667 9.41383656,9.44066667 C10.5215905,8.60333333 11.130717,7.50266667 11.130717,6.34133333 C11.130717,5.288 10.7978384,4.352 10.2287678,3.694 L10.6693831,3.694 C10.7612355,3.694 10.8503255,3.66666667 10.9235311,3.61466667 L12.1521435,2.75666667 C12.3047705,2.65 12.3689981,2.46133333 12.3096048,2.28933333 C12.2515927,2.11733333 12.085844,2 11.8986861,2 L6.40342547,2 C5.80120513,2 5.19069735,2.10333333 4.59193011,2.302 C2.58844248,2.96866667 1.18855643,4.616 1.18855643,6.30733333 C1.18855643,8.70333333 3.11055094,10.52 5.68172793,10.5766667 C5.6313127,10.7673333 5.60575977,10.9533333 5.60575977,11.1366667 C5.60575977,11.5066667 5.70313714,11.856 5.90272622,12.194 L5.8315924,12.194 C3.38196447,12.194 1.1699097,13.356 0.330806816,15.082 C0.110499145,15.5313333 0,15.986 0,16.434 C0,16.87 0.116024103,17.2893333 0.342547351,17.684 C0.871562009,18.594 2.00417825,19.3013333 3.53528203,19.6746667 L3.53528203,19.6746667 Z M4.02493137,6.24333333 C3.90614479,5.366 4.09675581,4.57666667 4.54980231,4.07866667 C4.84262505,3.75666667 5.22591896,3.586 5.65479376,3.586 L5.70451838,3.58733333 C6.91862774,3.62133333 8.07955938,4.92866667 8.2943421,6.5 C8.41450992,7.38066667 8.21215836,8.20733333 7.75358691,8.71133333 C7.46076417,9.034 7.08299522,9.20466667 6.63478306,9.20466667 C6.63478306,9.20466667 6.63478306,9.20466667 6.63409244,9.20466667 L6.61475509,9.20466667 C5.42550804,9.16933333 4.23833284,7.81266667 4.02493137,6.24333333 L4.02493137,6.24333333 Z M6.35991644,13.522 L6.40964105,13.522 C6.81710665,13.5273333 7.21352233,13.586 7.58852881,13.6953333 C7.71698406,13.7813333 7.8412956,13.8633333 7.9607728,13.9413333 C8.82680986,14.5106667 9.39933355,14.8866667 9.55955731,15.4913333 C9.59616015,15.6433333 9.61480689,15.796 9.61480689,15.9426667 C9.61480689,17.4966667 8.41450992,18.284 6.04706573,18.284 C4.25145462,18.284 2.84742485,17.2213333 2.84742485,15.8633333 C2.84742485,14.616 4.48902778,13.522 6.35991644,13.522 L6.35991644,13.522 Z" id="Fill-9" fill="#444444" sketch:type="MSShapeGroup"></path>
    </g>
</svg>