<?xml version="1.0" encoding="UTF-8" standalone="no"?>
<svg width="22px" height="28px" viewBox="0 0 22 28" version="1.1" xmlns="http://www.w3.org/2000/svg" xmlns:xlink="http://www.w3.org/1999/xlink" xmlns:sketch="http://www.bohemiancoding.com/sketch/ns">
    <!-- Generator: Sketch 3.3.2 (12043) - http://www.bohemiancoding.com/sketch -->
    <title>icon-twitter</title>
    <desc>Created with Sketch.</desc>
    <defs></defs>
    <g id="Page-1" stroke="none" stroke-width="1" fill="none" fill-rule="evenodd" sketch:type="MSPage">
        <path d="M21.1474473,10.2993333 C20.3263005,10.7706667 19.4167544,11.112 18.4485057,11.2973333 C17.674321,10.4986667 16.5679483,10 15.3462422,10 C12.9988259,10 11.0961688,11.8373333 11.0961688,14.104 C11.0961688,14.426 11.1334622,14.7386667 11.2052867,15.0393333 C7.67207652,14.8673333 4.54011637,13.2346667 2.44408571,10.7513333 C2.07736667,11.3566667 1.86741829,12.0626667 1.86741829,12.8153333 C1.86741829,14.2386667 2.61812186,15.4933333 3.75902554,16.2293333 C3.0621903,16.2086667 2.40610162,16.0233333 1.83288731,15.716 L1.83288731,15.768 C1.83288731,17.7553333 3.29838222,19.414 5.24316718,19.792 C4.88680744,19.8853333 4.51041972,19.936 4.12367272,19.936 C3.84949671,19.936 3.58291752,19.91 3.32393515,19.862 C3.86469034,21.4926667 5.43446883,22.6786667 7.29499819,22.7126667 C5.83917195,23.8126667 4.00626737,24.4686667 2.01452028,24.4686667 C1.67059169,24.4686667 1.3335693,24.4493333 1,24.4113333 C2.88262919,25.576 5.11609316,26.254 7.51737772,26.254 C15.3365735,26.254 19.6115092,20.0026667 19.6115092,14.5793333 C19.6115092,14.4026667 19.6087467,14.224 19.599078,14.0486667 C20.4298935,13.47 21.1502098,12.7473333 21.7192804,11.9246667 C20.9589081,12.2513333 20.138452,12.4713333 19.2793211,12.5706667 C20.1564081,12.0626667 20.8304529,11.2593333 21.1474473,10.2993333" id="Fill-3" fill="#444444" sketch:type="MSShapeGroup"></path>
    </g>
</svg>