<?xml version="1.0" encoding="UTF-8" standalone="no"?>
<svg width="140px" height="40px" viewBox="0 0 140 40" version="1.1" xmlns="http://www.w3.org/2000/svg" xmlns:xlink="http://www.w3.org/1999/xlink" xmlns:sketch="http://www.bohemiancoding.com/sketch/ns">
    <!-- Generator: Sketch 3.3.2 (12043) - http://www.bohemiancoding.com/sketch -->
    <title>legend-accessibility</title>
    <desc>Created with Sketch.</desc>
    <defs></defs>
    <g id="Page-1" stroke="none" stroke-width="1" fill="none" fill-rule="evenodd" sketch:type="MSPage">
        <rect id="Rectangle-2-Copy-12" fill="#B11A1A" sketch:type="MSShapeGroup" x="10" y="10" width="40" height="20"></rect>
        <rect id="Rectangle-2-Copy-17" fill="#9DCD84" sketch:type="MSShapeGroup" x="90" y="10" width="40" height="20"></rect>
        <rect id="Rectangle-2-Copy-19" fill="#F6C52A" sketch:type="MSShapeGroup" x="50" y="10" width="40" height="20"></rect>
        <g id="noun_161-(1)" sketch:type="MSLayerGroup" transform="translate(70.500000, 21.500000) scale(-1, 1) translate(-70.500000, -21.500000) translate(64.000000, 16.000000)" fill="#000000">
            <path d="M3.92431,5.28281395 L2.64134,6.28432558 L1.00074,7.52118605 C0.53261,7.88265116 0.14898,7.44725581 0.14898,7.44725581 C-0.21528,6.97719767 0.20345,6.66919767 0.20345,6.66919767 L2.24835,5.09568605 C2.24835,5.09568605 2.47195,4.86622093 3.05994,5.03134884 L3.92431,5.28281395" id="Shape" sketch:type="MSShapeGroup"></path>
            <path d="M6.3206,3.27237209 C5.6784,3.27237209 5.16087,2.76330233 5.16087,2.13131395 C5.16087,1.49932558 5.6784,0.985267442 6.3206,0.985267442 C6.9628,0.985267442 7.48384,1.49945349 7.48384,2.13131395 C7.48384,2.76317442 6.96293,3.27237209 6.3206,3.27237209" id="Shape" sketch:type="MSShapeGroup"></path>
            <path d="M3.445,9.52996512 C3.445,9.19216279 3.16693,8.91869767 2.8236,8.91869767 C2.48001,8.91869767 2.2022,9.1922907 2.2022,9.52996512 C2.2022,9.86802326 2.48014,10.1413605 2.8236,10.1413605 C3.1668,10.1418721 3.445,9.86827907 3.445,9.52996512 M9.19984,9.52996512 C9.19984,9.19216279 8.92164,8.91869767 8.57844,8.91869767 C8.23641,8.91869767 7.95821,9.1922907 7.95821,9.52996512 C7.95821,9.86802326 8.23641,10.1413605 8.57844,10.1413605 C8.92164,10.1418721 9.19984,9.86827907 9.19984,9.52996512 M2.06466,8.32776744 C1.98471,8.11083721 1.9513,7.87497674 2.00551,7.63630233 C2.07077,7.36872093 2.21949,7.1427093 2.41761,6.9775814 L11.01581,0.243662791 C11.2255,0.0926046512 11.48238,0 11.76214,0 C12.44737,0 13,0.543732558 13,1.21984884 C13,1.61277907 12.818,1.9615814 12.52888,2.18656977 C12.42657,2.27456977 12.27655,2.26369767 12.19023,2.1615 C12.0991,2.06083721 12.11327,1.90543023 12.21727,1.8205 C12.40265,1.68696512 12.51926,1.46683721 12.51926,1.21997674 C12.51926,0.807988372 12.17905,0.473255814 11.76214,0.473255814 C11.58469,0.473255814 11.42804,0.531453488 11.30038,0.625593023 L8.80152,2.58410465 L7.49463,6.30619767 L8.28711,8.15956977 C8.3798,8.13923256 8.47899,8.1217093 8.57792,8.1217093 C9.3704,8.1217093 10.01091,8.75356977 10.01091,9.53022093 C10.01091,10.3116047 9.37027,10.9386047 8.57792,10.9386047 C7.78856,10.9386047 7.14818,10.3113488 7.14818,9.53022093 C7.14818,9.0272907 7.41494,8.58383721 7.82067,8.33876744 L7.2501,6.99638372 L7.20226,7.13938372 C7.02806,7.66597674 6.44969,7.95389535 5.91474,7.77930233 L3.26105,6.91784884 L2.74339,7.32510465 C2.62041,7.42410465 2.52772,7.56569767 2.48612,7.73056977 C2.45076,7.88303488 2.47624,8.02923256 2.52759,8.15969767 C2.62028,8.14243023 2.72259,8.12183721 2.82321,8.12183721 C3.61244,8.12183721 4.25308,8.75369767 4.25308,9.53034884 C4.25308,10.3117326 3.61244,10.9387326 2.82321,10.9387326 C2.03398,10.9387326 1.38996,10.3114767 1.38996,9.53034884 C1.39048,9.02089535 1.65256,8.57437209 2.06466,8.32776744" id="Shape" sketch:type="MSShapeGroup"></path>
        </g>
        <g id="noun_161-(1)-copy-2" sketch:type="MSLayerGroup" transform="translate(100.500000, 21.500000) scale(-1, 1) translate(-100.500000, -21.500000) translate(94.000000, 16.000000)" fill="#000000">
            <path d="M3.92431,5.28281395 L2.64134,6.28432558 L1.00074,7.52118605 C0.53261,7.88265116 0.14898,7.44725581 0.14898,7.44725581 C-0.21528,6.97719767 0.20345,6.66919767 0.20345,6.66919767 L2.24835,5.09568605 C2.24835,5.09568605 2.47195,4.86622093 3.05994,5.03134884 L3.92431,5.28281395" id="Shape" sketch:type="MSShapeGroup"></path>
            <path d="M6.3206,3.27237209 C5.6784,3.27237209 5.16087,2.76330233 5.16087,2.13131395 C5.16087,1.49932558 5.6784,0.985267442 6.3206,0.985267442 C6.9628,0.985267442 7.48384,1.49945349 7.48384,2.13131395 C7.48384,2.76317442 6.96293,3.27237209 6.3206,3.27237209" id="Shape" sketch:type="MSShapeGroup"></path>
            <path d="M3.445,9.52996512 C3.445,9.19216279 3.16693,8.91869767 2.8236,8.91869767 C2.48001,8.91869767 2.2022,9.1922907 2.2022,9.52996512 C2.2022,9.86802326 2.48014,10.1413605 2.8236,10.1413605 C3.1668,10.1418721 3.445,9.86827907 3.445,9.52996512 M9.19984,9.52996512 C9.19984,9.19216279 8.92164,8.91869767 8.57844,8.91869767 C8.23641,8.91869767 7.95821,9.1922907 7.95821,9.52996512 C7.95821,9.86802326 8.23641,10.1413605 8.57844,10.1413605 C8.92164,10.1418721 9.19984,9.86827907 9.19984,9.52996512 M2.06466,8.32776744 C1.98471,8.11083721 1.9513,7.87497674 2.00551,7.63630233 C2.07077,7.36872093 2.21949,7.1427093 2.41761,6.9775814 L11.01581,0.243662791 C11.2255,0.0926046512 11.48238,0 11.76214,0 C12.44737,0 13,0.543732558 13,1.21984884 C13,1.61277907 12.818,1.9615814 12.52888,2.18656977 C12.42657,2.27456977 12.27655,2.26369767 12.19023,2.1615 C12.0991,2.06083721 12.11327,1.90543023 12.21727,1.8205 C12.40265,1.68696512 12.51926,1.46683721 12.51926,1.21997674 C12.51926,0.807988372 12.17905,0.473255814 11.76214,0.473255814 C11.58469,0.473255814 11.42804,0.531453488 11.30038,0.625593023 L8.80152,2.58410465 L7.49463,6.30619767 L8.28711,8.15956977 C8.3798,8.13923256 8.47899,8.1217093 8.57792,8.1217093 C9.3704,8.1217093 10.01091,8.75356977 10.01091,9.53022093 C10.01091,10.3116047 9.37027,10.9386047 8.57792,10.9386047 C7.78856,10.9386047 7.14818,10.3113488 7.14818,9.53022093 C7.14818,9.0272907 7.41494,8.58383721 7.82067,8.33876744 L7.2501,6.99638372 L7.20226,7.13938372 C7.02806,7.66597674 6.44969,7.95389535 5.91474,7.77930233 L3.26105,6.91784884 L2.74339,7.32510465 C2.62041,7.42410465 2.52772,7.56569767 2.48612,7.73056977 C2.45076,7.88303488 2.47624,8.02923256 2.52759,8.15969767 C2.62028,8.14243023 2.72259,8.12183721 2.82321,8.12183721 C3.61244,8.12183721 4.25308,8.75369767 4.25308,9.53034884 C4.25308,10.3117326 3.61244,10.9387326 2.82321,10.9387326 C2.03398,10.9387326 1.38996,10.3114767 1.38996,9.53034884 C1.39048,9.02089535 1.65256,8.57437209 2.06466,8.32776744" id="Shape" sketch:type="MSShapeGroup"></path>
        </g>
        <g id="noun_354" sketch:type="MSLayerGroup" transform="translate(112.000000, 13.000000)" fill="#000000">
            <path d="M8.42413793,9.15362 C8.42441379,9.17406 8.42565517,9.19394 8.42565517,9.21438 C8.42565517,11.291 6.76110345,12.98052 4.71503448,12.98052 C2.66910345,12.98052 1.00441379,11.291 1.00441379,9.21438 C1.00441379,7.95914 1.61310345,6.84614 2.54593103,6.1614 L2.41972414,5.03608 C0.977517241,5.8555 0,7.42084 0,9.21424 C0,11.85324 2.11503448,14 4.71503448,14 C6.91903448,14 8.77393103,12.45706 9.288,10.37974 L8.42413793,9.15362 L8.42413793,9.15362 Z" id="Shape" sketch:type="MSShapeGroup"></path>
            <ellipse id="Oval" sketch:type="MSShapeGroup" cx="4.10965517" cy="1.21772" rx="1.19972414" ry="1.21772"></ellipse>
            <path d="M11.8437241,10.65372 L9.15172414,6.83298 C9.01075862,6.63292 8.77572414,6.53828 8.53696552,6.559 C8.51917241,6.55732 8.50137931,6.55578 8.48331034,6.55578 L5.40813793,6.55578 L5.33186207,5.87622 L7.61765517,5.87622 C7.88344828,5.87622 8.09889655,5.65754 8.09889655,5.38776 C8.09889655,5.11798 7.88344828,4.8993 7.61765517,4.8993 L5.22234483,4.8993 L5.09724138,3.7835 C5.02413793,3.13082 4.44344828,2.66196 3.80055172,2.7363 C3.15751724,2.81064 2.69558621,3.3999 2.76882759,4.05244 L3.1222069,7.2037 C3.19062069,7.81312 3.70096552,8.26168 4.29158621,8.25832 C4.29351724,8.25832 4.29544828,8.25874 4.29751724,8.25874 L8.32124138,8.25874 L10.629931,11.53516 C10.8503448,11.84834 11.3011034,11.9049 11.6364138,11.6613 C11.9714483,11.41798 12.0644138,10.96676 11.8437241,10.65372 L11.8437241,10.65372 Z" id="Shape" sketch:type="MSShapeGroup"></path>
        </g>
    </g>
</svg>