<?xml version="1.0" encoding="UTF-8" standalone="no"?>
<svg width="220px" height="57px" viewBox="0 0 220 57" version="1.1" xmlns="http://www.w3.org/2000/svg" xmlns:xlink="http://www.w3.org/1999/xlink" xmlns:sketch="http://www.bohemiancoding.com/sketch/ns">
    <!-- Generator: Sketch 3.3.2 (12043) - http://www.bohemiancoding.com/sketch -->
    <title>legend-sidewalks</title>
    <desc>Created with Sketch.</desc>
    <defs></defs>
    <g id="Page-1" stroke="none" stroke-width="1" fill="none" fill-rule="evenodd" sketch:type="MSPage">
        <rect id="Rectangle-2-Copy-10" fill="#B11A1A" sketch:type="MSShapeGroup" x="10" y="10" width="40" height="20"></rect>
        <rect id="Rectangle-2-Copy-6" fill="#ED7A17" sketch:type="MSShapeGroup" x="50" y="10" width="40" height="20"></rect>
        <rect id="Rectangle-2-Copy-7" fill="#7DD687" sketch:type="MSShapeGroup" x="130" y="10" width="40" height="20"></rect>
        <rect id="Rectangle-2-Copy-8" fill="#60A4B2" sketch:type="MSShapeGroup" x="170" y="10" width="40" height="20"></rect>
        <text id="240-copy-2" sketch:type="MSTextLayer" font-family="Arial" font-size="11" font-weight="normal" sketch:alignment="middle" fill="#444444">
            <tspan x="161.006942" y="45.6150807">240</tspan>
        </text>
        <rect id="Rectangle-2-Copy-9" fill="#F6C52A" sketch:type="MSShapeGroup" x="90" y="10" width="40" height="20"></rect>
        <text id="180-copy-2" sketch:type="MSTextLayer" font-family="Arial" font-size="11" font-weight="normal" sketch:alignment="middle" fill="#444444">
            <tspan x="121.006942" y="45.6150807">180</tspan>
        </text>
        <text id="60-copy-2" sketch:type="MSTextLayer" font-family="Arial" font-size="11" font-weight="normal" sketch:alignment="middle" fill="#444444">
            <tspan x="44.0657798" y="45.6150807">60</tspan>
        </text>
        <path d="M90.5,10.5 L90.5,32.4999998" id="Line-Copy-5" stroke="#333333" stroke-linecap="square" sketch:type="MSShapeGroup"></path>
        <path d="M130.5,10.5 L130.5,32.4999998" id="Line-Copy-10" stroke="#333333" stroke-linecap="square" sketch:type="MSShapeGroup"></path>
        <path d="M170.5,10.5 L170.5,32.4999998" id="Line-Copy-11" stroke="#333333" stroke-linecap="square" sketch:type="MSShapeGroup"></path>
        <path d="M50.5,10.5 L50.5,32.4999998" id="Line-Copy-12" stroke="#333333" stroke-linecap="square" sketch:type="MSShapeGroup"></path>
        <text id="120-copy-2" sketch:type="MSTextLayer" font-family="Arial" font-size="11" font-weight="normal" sketch:alignment="middle" fill="#444444">
            <tspan x="81.0069419" y="45.6150807">120</tspan>
        </text>
        <text id="cm-copy-2" sketch:type="MSTextLayer" font-family="Arial" font-size="11" font-weight="normal" sketch:alignment="middle" fill="#444444">
            <tspan x="9.28135571" y="45.6150807">cm</tspan>
        </text>
        <g id="Fill-1-+-Fill-3-Copy-11" sketch:type="MSLayerGroup" transform="translate(53.000000, 12.763030)" fill="#333333">
            <path d="M2.9948125,2.48491886 C3.6995,2.48491886 4.270875,1.92861055 4.270875,1.24244422 C4.270875,0.556308316 3.6995,0 2.9948125,0 C2.29003125,0 1.71875,0.556308316 1.71875,1.24244422 C1.71875,1.92861055 2.29003125,2.48491886 2.9948125,2.48491886" id="Fill-1" sketch:type="MSShapeGroup"></path>
            <path d="M1.63040625,2.76876268 C0.72675,2.76876268 0,3.4863286 0,4.38133874 L0,8.19599391 C0,8.93762677 1.11478125,8.93762677 1.11478125,8.19599391 L1.11478125,4.70790061 L1.3786875,4.70790061 L1.3786875,14.2588235 C1.3786875,15.2504057 2.86315625,15.2212272 2.86315625,14.2588235 L2.86315625,8.71463489 L3.11884375,8.71463489 L3.11884375,14.2588235 C3.11884375,15.2212272 4.61146875,15.2504057 4.61146875,14.2588235 L4.61146875,4.70790061 L4.8691875,4.70790061 L4.8691875,8.19599391 C4.8691875,8.94334686 5.97815625,8.94331643 5.97615625,8.19599391 L5.97615625,4.40415822 C5.97615625,3.57885396 5.31790625,2.77046653 4.32571875,2.77046653 L1.63040625,2.76876268" id="Fill-3" sketch:type="MSShapeGroup"></path>
        </g>
        <g id="Fill-1-+-Fill-3-Copy-12" sketch:type="MSLayerGroup" transform="translate(93.000000, 13.000000)" fill="#333333">
            <path d="M2.9948125,2.48491886 C3.6995,2.48491886 4.270875,1.92861055 4.270875,1.24244422 C4.270875,0.556308316 3.6995,0 2.9948125,0 C2.29003125,0 1.71875,0.556308316 1.71875,1.24244422 C1.71875,1.92861055 2.29003125,2.48491886 2.9948125,2.48491886" id="Fill-1" sketch:type="MSShapeGroup"></path>
            <path d="M1.63040625,2.76876268 C0.72675,2.76876268 0,3.4863286 0,4.38133874 L0,8.19599391 C0,8.93762677 1.11478125,8.93762677 1.11478125,8.19599391 L1.11478125,4.70790061 L1.3786875,4.70790061 L1.3786875,14.2588235 C1.3786875,15.2504057 2.86315625,15.2212272 2.86315625,14.2588235 L2.86315625,8.71463489 L3.11884375,8.71463489 L3.11884375,14.2588235 C3.11884375,15.2212272 4.61146875,15.2504057 4.61146875,14.2588235 L4.61146875,4.70790061 L4.8691875,4.70790061 L4.8691875,8.19599391 C4.8691875,8.94334686 5.97815625,8.94331643 5.97615625,8.19599391 L5.97615625,4.40415822 C5.97615625,3.57885396 5.31790625,2.77046653 4.32571875,2.77046653 L1.63040625,2.76876268" id="Fill-3" sketch:type="MSShapeGroup"></path>
        </g>
        <g id="Fill-1-+-Fill-3-Copy-13" sketch:type="MSLayerGroup" transform="translate(101.000000, 13.000000)" fill="#333333">
            <path d="M2.9948125,2.48491886 C3.6995,2.48491886 4.270875,1.92861055 4.270875,1.24244422 C4.270875,0.556308316 3.6995,0 2.9948125,0 C2.29003125,0 1.71875,0.556308316 1.71875,1.24244422 C1.71875,1.92861055 2.29003125,2.48491886 2.9948125,2.48491886" id="Fill-1" sketch:type="MSShapeGroup"></path>
            <path d="M1.63040625,2.76876268 C0.72675,2.76876268 0,3.4863286 0,4.38133874 L0,8.19599391 C0,8.93762677 1.11478125,8.93762677 1.11478125,8.19599391 L1.11478125,4.70790061 L1.3786875,4.70790061 L1.3786875,14.2588235 C1.3786875,15.2504057 2.86315625,15.2212272 2.86315625,14.2588235 L2.86315625,8.71463489 L3.11884375,8.71463489 L3.11884375,14.2588235 C3.11884375,15.2212272 4.61146875,15.2504057 4.61146875,14.2588235 L4.61146875,4.70790061 L4.8691875,4.70790061 L4.8691875,8.19599391 C4.8691875,8.94334686 5.97815625,8.94331643 5.97615625,8.19599391 L5.97615625,4.40415822 C5.97615625,3.57885396 5.31790625,2.77046653 4.32571875,2.77046653 L1.63040625,2.76876268" id="Fill-3" sketch:type="MSShapeGroup"></path>
        </g>
        <g id="Fill-1-+-Fill-3-Copy-14" sketch:type="MSLayerGroup" transform="translate(133.000000, 13.000000)" fill="#333333">
            <path d="M2.9948125,2.48491886 C3.6995,2.48491886 4.270875,1.92861055 4.270875,1.24244422 C4.270875,0.556308316 3.6995,0 2.9948125,0 C2.29003125,0 1.71875,0.556308316 1.71875,1.24244422 C1.71875,1.92861055 2.29003125,2.48491886 2.9948125,2.48491886" id="Fill-1" sketch:type="MSShapeGroup"></path>
            <path d="M1.63040625,2.76876268 C0.72675,2.76876268 0,3.4863286 0,4.38133874 L0,8.19599391 C0,8.93762677 1.11478125,8.93762677 1.11478125,8.19599391 L1.11478125,4.70790061 L1.3786875,4.70790061 L1.3786875,14.2588235 C1.3786875,15.2504057 2.86315625,15.2212272 2.86315625,14.2588235 L2.86315625,8.71463489 L3.11884375,8.71463489 L3.11884375,14.2588235 C3.11884375,15.2212272 4.61146875,15.2504057 4.61146875,14.2588235 L4.61146875,4.70790061 L4.8691875,4.70790061 L4.8691875,8.19599391 C4.8691875,8.94334686 5.97815625,8.94331643 5.97615625,8.19599391 L5.97615625,4.40415822 C5.97615625,3.57885396 5.31790625,2.77046653 4.32571875,2.77046653 L1.63040625,2.76876268" id="Fill-3" sketch:type="MSShapeGroup"></path>
        </g>
        <g id="Fill-1-+-Fill-3-Copy-15" sketch:type="MSLayerGroup" transform="translate(141.000000, 13.000000)" fill="#333333">
            <path d="M2.9948125,2.48491886 C3.6995,2.48491886 4.270875,1.92861055 4.270875,1.24244422 C4.270875,0.556308316 3.6995,0 2.9948125,0 C2.29003125,0 1.71875,0.556308316 1.71875,1.24244422 C1.71875,1.92861055 2.29003125,2.48491886 2.9948125,2.48491886" id="Fill-1" sketch:type="MSShapeGroup"></path>
            <path d="M1.63040625,2.76876268 C0.72675,2.76876268 0,3.4863286 0,4.38133874 L0,8.19599391 C0,8.93762677 1.11478125,8.93762677 1.11478125,8.19599391 L1.11478125,4.70790061 L1.3786875,4.70790061 L1.3786875,14.2588235 C1.3786875,15.2504057 2.86315625,15.2212272 2.86315625,14.2588235 L2.86315625,8.71463489 L3.11884375,8.71463489 L3.11884375,14.2588235 C3.11884375,15.2212272 4.61146875,15.2504057 4.61146875,14.2588235 L4.61146875,4.70790061 L4.8691875,4.70790061 L4.8691875,8.19599391 C4.8691875,8.94334686 5.97815625,8.94331643 5.97615625,8.19599391 L5.97615625,4.40415822 C5.97615625,3.57885396 5.31790625,2.77046653 4.32571875,2.77046653 L1.63040625,2.76876268" id="Fill-3" sketch:type="MSShapeGroup"></path>
        </g>
        <g id="Fill-1-+-Fill-3-Copy-16" sketch:type="MSLayerGroup" transform="translate(149.000000, 13.000000)" fill="#333333">
            <path d="M2.9948125,2.48491886 C3.6995,2.48491886 4.270875,1.92861055 4.270875,1.24244422 C4.270875,0.556308316 3.6995,0 2.9948125,0 C2.29003125,0 1.71875,0.556308316 1.71875,1.24244422 C1.71875,1.92861055 2.29003125,2.48491886 2.9948125,2.48491886" id="Fill-1" sketch:type="MSShapeGroup"></path>
            <path d="M1.63040625,2.76876268 C0.72675,2.76876268 0,3.4863286 0,4.38133874 L0,8.19599391 C0,8.93762677 1.11478125,8.93762677 1.11478125,8.19599391 L1.11478125,4.70790061 L1.3786875,4.70790061 L1.3786875,14.2588235 C1.3786875,15.2504057 2.86315625,15.2212272 2.86315625,14.2588235 L2.86315625,8.71463489 L3.11884375,8.71463489 L3.11884375,14.2588235 C3.11884375,15.2212272 4.61146875,15.2504057 4.61146875,14.2588235 L4.61146875,4.70790061 L4.8691875,4.70790061 L4.8691875,8.19599391 C4.8691875,8.94334686 5.97815625,8.94331643 5.97615625,8.19599391 L5.97615625,4.40415822 C5.97615625,3.57885396 5.31790625,2.77046653 4.32571875,2.77046653 L1.63040625,2.76876268" id="Fill-3" sketch:type="MSShapeGroup"></path>
        </g>
        <g id="Fill-1-+-Fill-3-Copy-17" sketch:type="MSLayerGroup" transform="translate(173.000000, 13.000000)" fill="#333333">
            <path d="M2.9948125,2.48491886 C3.6995,2.48491886 4.270875,1.92861055 4.270875,1.24244422 C4.270875,0.556308316 3.6995,0 2.9948125,0 C2.29003125,0 1.71875,0.556308316 1.71875,1.24244422 C1.71875,1.92861055 2.29003125,2.48491886 2.9948125,2.48491886" id="Fill-1" sketch:type="MSShapeGroup"></path>
            <path d="M1.63040625,2.76876268 C0.72675,2.76876268 0,3.4863286 0,4.38133874 L0,8.19599391 C0,8.93762677 1.11478125,8.93762677 1.11478125,8.19599391 L1.11478125,4.70790061 L1.3786875,4.70790061 L1.3786875,14.2588235 C1.3786875,15.2504057 2.86315625,15.2212272 2.86315625,14.2588235 L2.86315625,8.71463489 L3.11884375,8.71463489 L3.11884375,14.2588235 C3.11884375,15.2212272 4.61146875,15.2504057 4.61146875,14.2588235 L4.61146875,4.70790061 L4.8691875,4.70790061 L4.8691875,8.19599391 C4.8691875,8.94334686 5.97815625,8.94331643 5.97615625,8.19599391 L5.97615625,4.40415822 C5.97615625,3.57885396 5.31790625,2.77046653 4.32571875,2.77046653 L1.63040625,2.76876268" id="Fill-3" sketch:type="MSShapeGroup"></path>
        </g>
        <g id="Fill-1-+-Fill-3-Copy-18" sketch:type="MSLayerGroup" transform="translate(181.000000, 13.000000)" fill="#333333">
            <path d="M2.9948125,2.48491886 C3.6995,2.48491886 4.270875,1.92861055 4.270875,1.24244422 C4.270875,0.556308316 3.6995,0 2.9948125,0 C2.29003125,0 1.71875,0.556308316 1.71875,1.24244422 C1.71875,1.92861055 2.29003125,2.48491886 2.9948125,2.48491886" id="Fill-1" sketch:type="MSShapeGroup"></path>
            <path d="M1.63040625,2.76876268 C0.72675,2.76876268 0,3.4863286 0,4.38133874 L0,8.19599391 C0,8.93762677 1.11478125,8.93762677 1.11478125,8.19599391 L1.11478125,4.70790061 L1.3786875,4.70790061 L1.3786875,14.2588235 C1.3786875,15.2504057 2.86315625,15.2212272 2.86315625,14.2588235 L2.86315625,8.71463489 L3.11884375,8.71463489 L3.11884375,14.2588235 C3.11884375,15.2212272 4.61146875,15.2504057 4.61146875,14.2588235 L4.61146875,4.70790061 L4.8691875,4.70790061 L4.8691875,8.19599391 C4.8691875,8.94334686 5.97815625,8.94331643 5.97615625,8.19599391 L5.97615625,4.40415822 C5.97615625,3.57885396 5.31790625,2.77046653 4.32571875,2.77046653 L1.63040625,2.76876268" id="Fill-3" sketch:type="MSShapeGroup"></path>
        </g>
        <g id="Fill-1-+-Fill-3-Copy-19" sketch:type="MSLayerGroup" transform="translate(189.000000, 13.000000)" fill="#333333">
            <path d="M4.270875,1.24244422 C4.270875,0.556308316 3.6995,0 2.9948125,0 C2.29003125,0 1.71875,0.556308316 1.71875,1.24244422 C1.71875,1.92861055 2.29003125,2.48491886 2.9948125,2.48491886 C3.6995,2.48491886 4.270875,1.92861055 4.270875,1.24244422 Z" id="Fill-1" sketch:type="MSShapeGroup"></path>
            <path d="M1.63040625,2.76876268 C0.72675,2.76876268 0,3.4863286 0,4.38133874 L0,8.19599391 C0,8.93762677 1.11478125,8.93762677 1.11478125,8.19599391 L1.11478125,4.70790061 L1.3786875,4.70790061 L1.3786875,14.2588235 C1.3786875,15.2504057 2.86315625,15.2212272 2.86315625,14.2588235 L2.86315625,8.71463489 L3.11884375,8.71463489 L3.11884375,14.2588235 C3.11884375,15.2212272 4.61146875,15.2504057 4.61146875,14.2588235 L4.61146875,4.70790061 L4.8691875,4.70790061 L4.8691875,8.19599391 C4.8691875,8.94334686 5.97815625,8.94331643 5.97615625,8.19599391 L5.97615625,4.40415822 C5.97615625,3.57885396 5.31790625,2.77046653 4.32571875,2.77046653 L1.63040625,2.76876268" id="Fill-3" sketch:type="MSShapeGroup"></path>
        </g>
        <g id="Fill-1-+-Fill-3-Copy-20" sketch:type="MSLayerGroup" transform="translate(197.000000, 13.000000)" fill="#333333">
            <path d="M2.9948125,2.48491886 C3.6995,2.48491886 4.270875,1.92861055 4.270875,1.24244422 C4.270875,0.556308316 3.6995,0 2.9948125,0 C2.29003125,0 1.71875,0.556308316 1.71875,1.24244422 C1.71875,1.92861055 2.29003125,2.48491886 2.9948125,2.48491886" id="Fill-1" sketch:type="MSShapeGroup"></path>
            <path d="M1.63040625,2.76876268 C0.72675,2.76876268 0,3.4863286 0,4.38133874 L0,8.19599391 C0,8.93762677 1.11478125,8.93762677 1.11478125,8.19599391 L1.11478125,4.70790061 L1.3786875,4.70790061 L1.3786875,14.2588235 C1.3786875,15.2504057 2.86315625,15.2212272 2.86315625,14.2588235 L2.86315625,8.71463489 L3.11884375,8.71463489 L3.11884375,14.2588235 C3.11884375,15.2212272 4.61146875,15.2504057 4.61146875,14.2588235 L4.61146875,4.70790061 L4.8691875,4.70790061 L4.8691875,8.19599391 C4.8691875,8.94334686 5.97815625,8.94331643 5.97615625,8.19599391 L5.97615625,4.40415822 C5.97615625,3.57885396 5.31790625,2.77046653 4.32571875,2.77046653 L1.63040625,2.76876268" id="Fill-3" sketch:type="MSShapeGroup"></path>
        </g>
    </g>
</svg>