<?xml version="1.0" encoding="UTF-8" standalone="no"?>
<svg width="148px" height="32px" viewBox="0 0 148 32" version="1.1" xmlns="http://www.w3.org/2000/svg" xmlns:xlink="http://www.w3.org/1999/xlink" xmlns:sketch="http://www.bohemiancoding.com/sketch/ns">
    <!-- Generator: Sketch 3.3.2 (12043) - http://www.bohemiancoding.com/sketch -->
    <title>urbica-logo</title>
    <desc>Created with Sketch.</desc>
    <defs></defs>
    <g id="Page-1" stroke="none" stroke-width="1" fill="none" fill-rule="evenodd" sketch:type="MSPage">
        <g id="Imported-Layers" sketch:type="MSLayerGroup" fill="#444444">
            <path d="M85,0 L90,0 L90,32 L85,32 L85,0 Z" id="Fill-1" sketch:type="MSShapeGroup"></path>
            <path d="M131.987131,0.256793388 L120.375559,31.9871897 L125.461618,31.9871897 L128.696934,22.6599669 L138.877518,22.6599669 L142.081814,31.9871897 L147.069653,31.9871897 L135.587585,0.256793388 L131.987131,0.256793388 Z M137.293731,18.0815868 L130.280985,18.0815868 L133.787094,7.8698843 L137.293731,18.0815868 L137.293731,18.0815868 Z" id="Fill-2" sketch:type="MSShapeGroup"></path>
            <path d="M111.993962,4.99961985 L115.981708,9.28476033 L119.232793,6.03160331 L113.461601,0.256793388 L103.105804,0.256793388 L95.0112196,8.04835833 L95.0112196,24.0145239 L103.110032,31.8288926 L113.45658,31.8288926 L119.232793,26.0498512 L115.981708,22.7966942 C115.981708,22.7966942 113.323211,25.5988981 111.993962,27 L105.014383,27 L100.018238,22.0351099 L100.018238,10.0698007 L105.014383,4.99961985 L111.993962,4.99961985 Z" id="Fill-3" sketch:type="MSShapeGroup"></path>
            <path d="M78.6676969,6.07761983 L73,0 L58,0 L58,32 L73.1473005,31.8288926 L79.9707278,25.0119477 L79.9707278,19.6281052 L75.455263,14.5079556 L78.6676969,11.4787438 L78.6676969,6.07761983 Z M62.5959411,12.7685289 L62.5959411,4.87722314 L70.9657278,4.87695868 L74.0711986,7.98386777 L74.0711986,9.57276033 L70.8795749,12.7685289 L62.5959411,12.7685289 L62.5959411,12.7685289 Z M62.5959411,27.2084628 L62.5959411,17.3881653 L71.5743483,17.3881653 L75.1816732,20.9986116 L75.1816732,23.2872727 L71.2643562,27.207405 L62.5959411,27.2084628 L62.5959411,27.2084628 Z" id="Fill-4" sketch:type="MSShapeGroup"></path>
            <path d="M52.9789257,7.03363085 L46.5701688,0 L30,0 L30,32 L35,31.9986058 L35.019201,18.9759103 L42.0489952,18.9759103 L47.5936489,31.9986057 L52.9789257,31.9986057 L46.942265,18.677686 L52.9789257,12.8873434 L52.9789257,7.03363085 Z M45.0141973,5.00299785 L48.157656,8.36522314 L48.157656,10.9572231 L45.0141969,14.0798077 L35.0052991,14.0798077 L35.0052991,5.00299785 L45.0141973,5.00299785 Z" id="Fill-5" sketch:type="MSShapeGroup"></path>
            <path d="M15.4824273,27 L8.61133214,27 L5,21.5687934 L5,0 L0,0 L0,23.2 L6.4,32 L17.6,32 L24,23.2 L23.9317601,0 L19,0 L19,21.564562 L15.4824273,27 Z" id="Fill-6" sketch:type="MSShapeGroup"></path>
        </g>
    </g>
</svg>