<?xml version="1.0" encoding="UTF-8" standalone="no"?>
<svg width="16px" height="20px" viewBox="0 0 16 20" version="1.1" xmlns="http://www.w3.org/2000/svg" xmlns:xlink="http://www.w3.org/1999/xlink" xmlns:sketch="http://www.bohemiancoding.com/sketch/ns">
    <!-- Generator: Sketch 3.3.2 (12043) - http://www.bohemiancoding.com/sketch -->
    <title>man-mini</title>
    <desc>Created with Sketch.</desc>
    <defs></defs>
    <g id="Page-1" stroke="none" stroke-width="1" fill="none" fill-rule="evenodd" sketch:type="MSPage">
        <path d="M10.8823303,9.08500001 C11.422136,9.60780001 12.1034079,9.95580001 12.2913282,10.0142 C12.4557788,10.0708 13.0897874,10.2758 13.1605205,10.2758 C13.254076,10.2758 13.3484408,10.3922 13.4186884,10.3922 C13.4894216,10.3922 13.6543577,10.2758 13.7009736,10.0142 C13.7474276,9.78280001 13.888894,9.02840001 13.6072562,8.97000001 C13.3013394,8.91180001 13.278517,9.08500001 13.278517,9.08500001 C13.278517,9.08500001 12.9025144,8.94000001 12.8317813,8.85360001 C12.7608863,8.76680001 12.1505093,8.38900001 11.9860588,8.15600001 C11.7979766,7.92440001 11.3985043,7.40180001 11.2110696,6.99520001 C10.9995175,6.50240001 10.7881274,5.71800001 10.6707783,5.42840001 C10.5527818,5.10860001 10.2476743,4.4708 10.0359604,4.2378 C9.84868747,4.0346 9.378482,3.5134 9.35485036,3.4836 C9.33121871,3.4552 9.33121871,3.1638 9.378482,3.1356 C9.42558347,3.1058 9.89514156,2.8144 9.98885893,2.5262 C10.0832237,2.2646 10.2240426,2.1198 10.2240426,1.6254 C10.2242045,1.104 9.82457022,0 8.88529227,0 C7.94601427,0 7.61662764,0.870799999 7.61662764,1.5102 C7.61662764,2.4094 8.08618569,2.6126 7.96899849,2.8456 C7.87479556,2.9606 7.64025929,2.9606 7.33498991,2.9906 C7.05270476,3.019 6.37208024,3.367 6.01906193,3.7732 C5.69032272,4.1796 5.0325206,5.08040001 4.8452477,5.57320001 C4.63353383,6.06780001 4.25769314,6.96700001 4.11622684,7.63480001 C3.97605542,8.27240001 3.90451296,8.67900001 3.90451296,8.91200001 C3.90451296,9.17340001 3.85805892,9.43480001 3.85805892,9.43480001 C3.85805892,9.43480001 3.599891,9.66620001 3.599891,9.86940001 C3.599891,10.071 3.88152873,10.4206 4.04597927,10.5088 C4.2104298,10.6236 4.53933086,10.7702 4.63353383,10.7702 C4.7272512,10.7702 5.07962208,10.5954 5.07962208,10.3058 C5.07962208,10.0144 4.93815577,9.60820001 4.93815577,9.34660001 C4.93815577,9.11520001 5.14986965,8.09960001 5.26770428,7.86640001 C5.3612598,7.66320001 5.76089402,6.88060001 5.8546114,6.76400001 C5.94881436,6.64740001 6.11326489,6.50260001 6.11326489,6.50260001 C6.11326489,7.37340001 6.01906193,9.43480001 5.87889051,10.0144 C5.73742421,10.5954 5.05615226,12.2508 4.7738671,12.8302 C4.44512789,13.4978 3.71740192,14.8916 3.31776771,15.4426 C2.91829535,15.9938 2.3550199,16.6034 2.28412489,16.6914 C2.19056937,16.7498 2.21339174,16.8946 2.28412489,17.0394 C2.33138823,17.1844 3.03548254,18.9262 3.08274588,18.9262 C3.10686313,18.9262 4.18695999,19.1876 4.23422332,19.1876 C4.30495648,19.1876 4.35141052,18.9546 4.23422332,18.8962 C4.11622684,18.8096 3.99903964,18.7814 3.99903964,18.7814 C3.90467482,18.2586 3.78748763,17.7356 3.67030044,17.1846 C3.67030044,17.1846 4.56312439,16.1688 4.75104473,15.9074 C4.91549527,15.6458 5.87905237,14.4854 6.06632527,14.1372 C6.2307758,13.8174 6.84115271,12.7718 6.9126952,12.5104 C7.00641258,12.2506 7.40588493,11.4364 7.40588493,11.4364 C7.40588493,11.4364 7.80487169,11.901 7.96916036,12.1624 C8.11062667,12.4238 8.7684288,13.8758 8.90860022,14.2238 C9.07369818,14.5436 9.63762107,16.1688 9.7077068,16.545 C9.80174787,16.8944 10.7410259,20 10.7410259,20 C10.7410259,20 12.9254987,18.8094 13.0198635,18.7512 C13.1140665,18.6644 13.2314156,18.3746 13.0198635,18.3746 C12.8081496,18.3746 11.4693993,18.1714 11.4693993,18.1714 C11.4693993,18.1714 11.3986662,17.2422 11.3514028,16.981 C11.3284186,16.7194 10.9996793,14.8912 10.8824922,14.5432 C10.7644957,14.2234 10.2005728,12.5982 10.0833856,12.4234 C9.94256671,12.2202 9.54293253,10.8268 9.44856773,10.5086 C9.35501218,10.159 9.21419333,9.28800001 9.21419333,8.91180001 C9.21419333,8.53380001 9.35501218,7.57640001 9.54293253,7.14160001 C9.77746876,7.80780001 10.3420391,8.53380001 10.8823303,9.08500001 Z" id="Shape-3-Copy-6" fill="#444444" sketch:type="MSShapeGroup"></path>
    </g>
</svg>