<?xml version="1.0" encoding="UTF-8" standalone="no"?>
<svg width="52px" height="72px" viewBox="0 0 52 72" version="1.1" xmlns="http://www.w3.org/2000/svg" xmlns:xlink="http://www.w3.org/1999/xlink" xmlns:sketch="http://www.bohemiancoding.com/sketch/ns">
    <!-- Generator: Sketch 3.3.2 (12043) - http://www.bohemiancoding.com/sketch -->
    <title>Shape-3 Copy 3</title>
    <desc>Created with Sketch.</desc>
    <defs></defs>
    <g id="Page-1" stroke="none" stroke-width="1" fill="none" fill-rule="evenodd" sketch:type="MSPage">
        <path d="M32.9431964,25.70976 C33.9986094,28.10808 36.5391758,30.72168 38.9704864,32.706 C41.3996118,34.58808 44.4653356,35.84088 45.310977,36.05112 C46.0510046,36.25488 48.9040432,36.99288 49.2223424,36.99288 C49.6433422,36.99288 50.0679838,37.41192 50.3840978,37.41192 C50.7023972,37.41192 51.4446098,36.99288 51.654381,36.05112 C51.8634244,35.21808 52.5000228,32.50224 51.2326528,32.292 C49.8560272,32.08248 49.7533266,32.706 49.7533266,32.706 C49.7533266,32.706 48.061315,32.184 47.743016,31.87296 C47.4239884,31.56048 44.677292,30.2004 43.9372648,29.3616 C43.0908948,28.52784 41.2932694,26.64648 40.449813,25.18272 C39.4978288,23.40864 38.5465732,20.5848 38.0185024,19.54224 C37.4875182,18.39096 36.1145344,16.09488 35.1618218,15.25608 C34.3190936,14.52456 32.203169,12.64824 32.0968266,12.54096 C31.9904842,12.43872 31.9904842,11.38968 32.203169,11.28816 C32.4151256,11.18088 34.528137,10.13184 34.9498652,9.09431999 C35.3745068,8.15255999 36.0081916,7.63127999 36.0081916,5.85144 C36.0089202,3.9744 34.210566,0 29.9838152,0 C25.7570642,0 24.2748244,3.13488 24.2748244,5.43672 C24.2748244,8.67383999 26.3878356,9.40535999 25.8604932,10.24416 C25.43658,10.65816 24.3811668,10.65816 23.0074546,10.76616 C21.7371714,10.8684 18.6743611,12.1212 17.0857787,13.58352 C15.6064523,15.04656 12.6463427,18.28944 11.8036146,20.06352 C10.8509022,21.84408 9.15961914,25.0812 8.52302076,27.48528 C7.89224938,29.78064 7.57030832,31.2444 7.57030832,32.0832 C7.57030832,33.02424 7.36126514,33.96528 7.36126514,33.96528 C7.36126514,33.96528 6.19950952,34.79832 6.19950952,35.52984 C6.19950952,36.2556 7.46687928,37.51416 8.2069067,37.83168 C8.94693408,38.24496 10.4269889,38.77272 10.8509022,38.77272 C11.2726304,38.77272 12.8582994,38.14344 12.8582994,37.10088 C12.8582994,36.05184 12.221701,34.58952 12.221701,33.64776 C12.221701,32.81472 13.1744134,29.15856 13.7046693,28.31904 C14.1256691,27.58752 15.9240231,24.77016 16.3457513,24.3504 C16.7696646,23.93064 17.509692,23.40936 17.509692,23.40936 C17.509692,26.54424 17.0857787,33.96528 16.4550073,36.05184 C15.8184089,38.14344 12.7526852,44.10288 11.482402,46.18872 C10.0030755,48.59208 6.72830864,53.60976 4.92995468,55.59336 C3.13232908,57.57768 0.59758957,59.77224 0.278562012,60.08904 C-0.142437825,60.29928 -0.0397371734,60.82056 0.278562012,61.34184 C0.49124705,61.86384 3.65967142,68.13432 3.87235646,68.13432 C3.9808841,68.13432 8.84131994,69.07536 9.05400496,69.07536 C9.37230414,69.07536 9.58134732,68.23656 9.05400496,68.02632 C8.52302076,67.71456 7.99567838,67.61304 7.99567838,67.61304 C7.57103668,65.73096 7.04369436,63.84816 6.51635198,61.86456 C6.51635198,61.86456 10.5340598,58.20768 11.3797013,57.26664 C12.1197287,56.32488 16.4557357,52.14744 17.2984637,50.89392 C18.0384911,49.74264 20.7851872,45.97848 21.1071284,45.03744 C21.5288566,44.10216 23.3264822,41.17104 23.3264822,41.17104 C23.3264822,41.17104 25.1219226,42.8436 25.8612216,43.78464 C26.49782,44.72568 29.4579296,49.95288 30.088701,51.20568 C30.8316418,52.35696 33.3692948,58.20768 33.6846806,59.562 C34.1078654,60.81984 38.3346166,72 38.3346166,72 C38.3346166,72 48.1647442,67.71384 48.5893858,67.50432 C49.0132992,67.19184 49.54137,66.14856 48.5893858,66.14856 C47.6366732,66.14856 41.6122968,65.41704 41.6122968,65.41704 C41.6122968,65.41704 41.2939978,62.07192 41.0813126,61.1316 C40.9778836,60.18984 39.498557,53.60832 38.971215,52.35552 C38.4402308,51.20424 35.9025774,45.35352 35.3752354,44.72424 C34.7415502,43.99272 32.9431964,38.97648 32.5185548,37.83096 C32.0975548,36.5724 31.46387,33.4368 31.46387,32.08248 C31.46387,30.72168 32.0975548,27.27504 32.9431964,25.70976" id="Shape-3-Copy-4" fill="#444444" sketch:type="MSShapeGroup"></path>
    </g>
</svg>