<?xml version="1.0" encoding="UTF-8" standalone="no"?>
<svg width="26px" height="36px" viewBox="0 0 26 36" version="1.1" xmlns="http://www.w3.org/2000/svg" xmlns:xlink="http://www.w3.org/1999/xlink" xmlns:sketch="http://www.bohemiancoding.com/sketch/ns">
    <!-- Generator: Sketch 3.3.2 (12043) - http://www.bohemiancoding.com/sketch -->
    <title>Shape-3</title>
    <desc>Created with Sketch.</desc>
    <defs></defs>
    <g id="Page-1" stroke="none" stroke-width="1" fill="none" fill-rule="evenodd" sketch:type="MSPage">
        <path d="M18.7646606,16.536 C19.8442719,17.37248 21.2068158,17.92928 21.5826564,18.02272 C21.9115576,18.11328 23.1795748,18.44128 23.3210411,18.44128 C23.5081521,18.44128 23.6968817,18.62752 23.8373768,18.62752 C23.9788432,18.62752 24.3087155,18.44128 24.4019471,18.02272 C24.4948553,17.65248 24.7777879,16.44544 24.2145124,16.352 C23.6026788,16.25888 23.557034,16.536 23.557034,16.536 C23.557034,16.536 22.8050289,16.304 22.6635627,16.16576 C22.5217726,16.02688 21.3010187,15.4224 20.9721177,15.0496 C20.5959532,14.67904 19.7970086,13.84288 19.4221391,13.19232 C18.999035,12.40384 18.5762548,11.1488 18.3415566,10.68544 C18.1055636,10.17376 17.4953486,9.15328 17.0719208,8.78048 C16.6973749,8.45536 15.756964,7.62144 15.7097007,7.57376 C15.6624374,7.52832 15.6624374,7.06208 15.756964,7.01696 C15.8511669,6.96928 16.7902831,6.50304 16.9777179,6.04192 C17.1664475,5.62336 17.4480852,5.39168 17.4480852,4.60064 C17.448409,3.7664 16.6491404,2 14.7705845,2 C12.8920285,2 12.2332553,3.39328 12.2332553,4.41632 C12.2332553,5.85504 13.1723714,6.18016 12.937997,6.55296 C12.7495911,6.73696 12.2805186,6.73696 11.6699798,6.78496 C11.1054095,6.8304 9.74416049,7.3872 9.03812386,8.03712 C8.38064545,8.68736 7.06504119,10.12864 6.69049539,10.91712 C6.26706765,11.70848 5.51538628,13.1472 5.23245367,14.21568 C4.95211083,15.23584 4.80902592,15.8864 4.80902592,16.2592 C4.80902592,16.67744 4.71611784,17.09568 4.71611784,17.09568 C4.71611784,17.09568 4.19978201,17.46592 4.19978201,17.79104 C4.19978201,18.1136 4.76305746,18.67296 5.09195853,18.81408 C5.42085959,18.99776 6.07866171,19.23232 6.26706765,19.23232 C6.45450241,19.23232 7.15924416,18.95264 7.15924416,18.48928 C7.15924416,18.02304 6.87631155,17.37312 6.87631155,16.95456 C6.87631155,16.58432 7.2997393,14.95936 7.53540856,14.58624 C7.72251959,14.26112 8.52178803,13.00896 8.70922279,12.8224 C8.89762871,12.63584 9.22652979,12.40416 9.22652979,12.40416 C9.22652979,13.79744 9.03812386,17.09568 8.75778102,18.02304 C8.47484842,18.95264 7.11230452,21.60128 6.5477342,22.52832 C5.89025579,23.59648 4.43480384,25.82656 3.63553541,26.70816 C2.8365907,27.59008 1.71003981,28.56544 1.56824978,28.70624 C1.38113874,28.79968 1.42678348,29.03136 1.56824978,29.26304 C1.66277647,29.49504 3.07096507,32.28192 3.16549176,32.28192 C3.21372627,32.28192 5.37391997,32.70016 5.46844665,32.70016 C5.60991295,32.70016 5.70282103,32.32736 5.46844665,32.23392 C5.23245367,32.09536 4.99807928,32.05024 4.99807928,32.05024 C4.80934963,31.21376 4.57497527,30.37696 4.34060088,29.49536 C4.34060088,29.49536 6.12624878,27.87008 6.50208946,27.45184 C6.83099053,27.03328 8.75810475,25.17664 9.13265053,24.61952 C9.46155161,24.10784 10.6823054,22.43488 10.8253904,22.01664 C11.0128252,21.60096 11.8117699,20.29824 11.8117699,20.29824 C11.8117699,20.29824 12.6097434,21.0416 12.9383207,21.45984 C13.2212533,21.87808 14.5368576,24.20128 14.8172004,24.75808 C15.1473964,25.26976 16.2752421,27.87008 16.4154136,28.472 C16.6034957,29.03104 18.4820518,34 18.4820518,34 C18.4820518,34 22.8509974,32.09504 23.039727,32.00192 C23.228133,31.86304 23.4628311,31.39936 23.039727,31.39936 C22.6162992,31.39936 19.9387986,31.07424 19.9387986,31.07424 C19.9387986,31.07424 19.7973324,29.58752 19.7028056,29.1696 C19.6568372,28.75104 18.9993587,25.82592 18.7649844,25.26912 C18.5289915,24.75744 17.4011455,22.15712 17.1667713,21.87744 C16.8851334,21.55232 16.0858651,19.32288 15.8971355,18.81376 C15.7100244,18.2544 15.4283867,16.8608 15.4283867,16.25888 C15.4283867,15.65408 15.7100244,14.12224 16.0858651,13.42656 C16.5549375,14.49248 17.6840781,15.65408 18.7646606,16.536 Z" id="Shape-3" fill="#444444" sketch:type="MSShapeGroup"></path>
    </g>
</svg>